<?xml version="1.0" encoding="utf-8"?>
<!-- Generator: Adobe Illustrator 20.1.0, SVG Export Plug-In . SVG Version: 6.00 Build 0)  -->
<svg version="1.1" id="Layer_1" xmlns="http://www.w3.org/2000/svg" xmlns:xlink="http://www.w3.org/1999/xlink" x="0px" y="0px"
	 viewBox="0 0 30 24.4" style="enable-background:new 0 0 30 24.4;" xml:space="preserve">
<style type="text/css">
	.st0{fill:#1AB6E9;}
</style>
<g>
	<path class="st0" d="M3.7,7.2C3.4,6.7,3,6.1,2.5,5.7C2.8,5.5,3,5.2,3.3,5c1.1-0.9,2.1-1.9,3.2-2.8C7.2,1.6,7.9,1,8.7,0.5
		c0.5-0.3,0.8-0.4,1.4-0.5c1.3-0.1,2.1,0.5,2.6,1.6c0.4,0.6,0.5,1.3,0.6,2c0.1,0.5,0.2,1.1,0.3,1.7c0.1,0.5,0.2,1.1,0.3,1.6
		c0.1,0.5,0.2,1,0.3,1.6c0.2,0.9,0.4,1.9,0.6,2.8c0.2,0.5,0.5,1.1,0.6,1.6c0.1,0.2,0.2,0.4,0.4,0.5c0.3,0.3,0.5,0.3,0.8,0.1
		c0.3-0.2,0.5-0.5,0.8-0.7c1.1-1.4,2-2.8,2.6-4.4c0.2-0.5,0.3-0.9,0.3-1.4c0-0.4,0-0.6-0.1-0.9c-0.2-0.5-0.6-0.8-1.2-0.8
		c-0.7-0.1-1.5,0.1-2.2,0.4h-0.1c0.1-0.4,0.2-0.6,0.3-0.9c0.3-0.7,0.6-1.5,1.1-2.1c0.9-1.4,2.2-2.3,3.8-2.6C22.4,0,22.8,0,23,0
		c0.4,0,0.7,0,1.1,0c1.4,0,2.6,0.9,3,2.3c0.1,0.5,0.3,0.9,0.3,1.5c0.1,0.5,0,0.9,0,1.4c0,0.5-0.1,1.1-0.3,1.6
		c-0.6,2.3-1.9,4.3-3.3,6.2c-1.3,1.8-2.6,3.6-4.1,5.2c-1.1,1.1-2.2,2.1-3.6,2.8c-0.5,0.3-1.2,0.5-1.8,0.6c-0.9,0.2-1.6-0.1-2.3-0.6
		c-0.6-0.6-1.1-1.4-1.6-2.2c-0.5-0.9-0.6-1.9-0.9-2.9c-0.3-1.1-0.6-2.3-0.9-3.4c-0.2-0.8-0.5-1.6-0.6-2.5c-0.3-0.9-0.5-1.8-1-2.6
		C6.8,6.8,6.6,6.6,6.4,6.3C6.1,6,5.7,5.9,5.3,6.1C4.8,6.4,4.4,6.7,3.9,7C3.9,7,3.8,7.1,3.7,7.2z"/>
</g>
</svg>
